<svg xmlns="http://www.w3.org/2000/svg" width="980" height="830" viewBox="0 0 980 830" font-family="Helvetica, Arial, sans-serif">
<rect width="980" height="830" fill="#ffffff"/>
<text x="490.0" y="30" text-anchor="middle" font-size="15" font-weight="bold" fill="#222">Dependency graph · Backbone: Rapid Purification by Choosing What to Measure</text>
<text x="490.0" y="48" text-anchor="middle" font-size="10.5" fill="#777">generated by backbone_lint.py from the page’s from-lists</text>
<defs><marker id="arr" viewBox="0 0 10 10" refX="9" refY="5" markerWidth="7" markerHeight="7" orient="auto-start-reverse"><path d="M 0 0 L 10 5 L 0 10 z" fill="#666"/></marker><marker id="arrd" viewBox="0 0 10 10" refX="9" refY="5" markerWidth="7" markerHeight="7" orient="auto-start-reverse"><path d="M 0 0 L 10 5 L 0 10 z" fill="#A6699C"/></marker></defs>
<line x1="196" y1="119" x2="327" y2="181" stroke="#666666" stroke-width="1.6" marker-end="url(#arr)"/>
<line x1="392" y1="119" x2="653" y2="181" stroke="#666666" stroke-width="1.6" marker-end="url(#arr)"/>
<line x1="588" y1="119" x2="653" y2="181" stroke="#666666" stroke-width="1.6" marker-end="url(#arr)"/>
<line x1="784" y1="119" x2="653" y2="181" stroke="#666666" stroke-width="1.6" marker-end="url(#arr)"/>
<line x1="653" y1="239" x2="245" y2="301" stroke="#666666" stroke-width="1.6" marker-end="url(#arr)"/>
<line x1="196" y1="119" x2="245" y2="301" stroke="#666666" stroke-width="1.6" marker-end="url(#arr)"/>
<line x1="245" y1="359" x2="490" y2="421" stroke="#666666" stroke-width="1.6" marker-end="url(#arr)"/>
<line x1="490" y1="479" x2="327" y2="541" stroke="#666666" stroke-width="1.6" marker-end="url(#arr)"/>
<line x1="327" y1="239" x2="327" y2="541" stroke="#666666" stroke-width="1.6" marker-end="url(#arr)"/>
<line x1="490" y1="479" x2="653" y2="541" stroke="#666666" stroke-width="1.6" marker-end="url(#arr)"/>
<line x1="588" y1="119" x2="490" y2="301" stroke="#A6699C" stroke-width="1.6" stroke-dasharray="6 4" marker-end="url(#arrd)"/>
<line x1="653" y1="239" x2="490" y2="301" stroke="#666666" stroke-width="1.6" marker-end="url(#arr)"/>
<line x1="196" y1="119" x2="490" y2="301" stroke="#666666" stroke-width="1.6" marker-end="url(#arr)"/>
<line x1="784" y1="119" x2="735" y2="301" stroke="#A6699C" stroke-width="1.6" stroke-dasharray="6 4" marker-end="url(#arrd)"/>
<line x1="653" y1="239" x2="735" y2="301" stroke="#666666" stroke-width="1.6" marker-end="url(#arr)"/>
<rect x="302" y="61" width="180" height="58" rx="8" fill="#E7EEF9" stroke="#5B7DB1" stroke-width="1.5"/>
<text x="392" y="78" text-anchor="middle" font-size="12" font-weight="bold" fill="#222">R1 · assumption</text>
<text x="392" y="93" text-anchor="middle" font-size="9.5" fill="#333">One observable of the</text>
<text x="392" y="106" text-anchor="middle" font-size="9.5" fill="#333">qubit</text>
<rect x="498" y="61" width="180" height="58" rx="8" fill="#E7EEF9" stroke="#5B7DB1" stroke-width="1.5"/>
<text x="588" y="78" text-anchor="middle" font-size="12" font-weight="bold" fill="#222">R2 · assumption</text>
<text x="588" y="93" text-anchor="middle" font-size="9.5" fill="#333">The record is complete: everything the</text>
<text x="588" y="106" text-anchor="middle" font-size="9.5" fill="#333">measurement emits</text>
<rect x="694" y="61" width="180" height="58" rx="8" fill="#E7EEF9" stroke="#5B7DB1" stroke-width="1.5"/>
<text x="784" y="78" text-anchor="middle" font-size="12" font-weight="bold" fill="#222">R3 · assumption</text>
<text x="784" y="93" text-anchor="middle" font-size="9.5" fill="#333">The watching is the only coupling:</text>
<text x="784" y="106" text-anchor="middle" font-size="9.5" fill="#333">no other channel</text>
<rect x="106" y="61" width="180" height="58" rx="8" fill="#FDF2DA" stroke="#C09A4A" stroke-width="1.5"/>
<text x="196" y="78" text-anchor="middle" font-size="12" font-weight="bold" fill="#222">C1 · choice</text>
<text x="196" y="93" text-anchor="middle" font-size="9.5" fill="#333">The working variable: the</text>
<text x="196" y="106" text-anchor="middle" font-size="9.5" fill="#333">impurity</text>
<rect x="237" y="181" width="180" height="58" rx="8" fill="#FDF2DA" stroke="#C09A4A" stroke-width="1.5"/>
<text x="327" y="198" text-anchor="middle" font-size="12" font-weight="bold" fill="#222">C2 · choice</text>
<text x="327" y="213" text-anchor="middle" font-size="9.5" fill="#333">The score: protocols are</text>
<text x="327" y="226" text-anchor="middle" font-size="9.5" fill="#333">ranked by</text>
<rect x="563" y="181" width="180" height="58" rx="8" fill="#E9F4EA" stroke="#5E9C6B" stroke-width="1.5"/>
<rect x="567" y="185" width="172" height="50" rx="6" fill="none" stroke="#5E9C6B" stroke-width="0.8"/>
<text x="653" y="198" text-anchor="middle" font-size="12" font-weight="bold" fill="#222">S0 · equation, cited</text>
<text x="653" y="213" text-anchor="middle" font-size="9.5" fill="#333">Quantum trajectory theory turns the</text>
<text x="653" y="226" text-anchor="middle" font-size="9.5" fill="#333">setup into the</text>
<rect x="155" y="301" width="180" height="58" rx="8" fill="#F4F4F4" stroke="#909090" stroke-width="1.5"/>
<text x="245" y="318" text-anchor="middle" font-size="12" font-weight="bold" fill="#222">S1 · statement</text>
<text x="245" y="333" text-anchor="middle" font-size="9.5" fill="#333">The exact increment of C1's</text>
<text x="245" y="346" text-anchor="middle" font-size="9.5" fill="#333">impurity, with</text>
<rect x="400" y="421" width="180" height="58" rx="8" fill="#F4F4F4" stroke="#909090" stroke-width="1.5"/>
<text x="490" y="438" text-anchor="middle" font-size="12" font-weight="bold" fill="#222">S2 · statement</text>
<text x="490" y="453" text-anchor="middle" font-size="9.5" fill="#333">Two protocols, one dial. Fixed axis:</text>
<text x="490" y="466" text-anchor="middle" font-size="9.5" fill="#333">the sharpening</text>
<rect x="237" y="541" width="180" height="58" rx="8" fill="#FFFFFF" stroke="#333333" stroke-width="2.5"/>
<text x="327" y="558" text-anchor="middle" font-size="12" font-weight="bold" fill="#222">H · headline</text>
<text x="327" y="573" text-anchor="middle" font-size="9.5" fill="#333">"Faster" is two claims, and they</text>
<text x="327" y="586" text-anchor="middle" font-size="9.5" fill="#333">disagree. At any fixed</text>
<rect x="563" y="541" width="180" height="58" rx="8" fill="#FAFAFA" stroke="#999999" stroke-width="1.5" stroke-dasharray="4 3"/>
<text x="653" y="558" text-anchor="middle" font-size="12" font-weight="bold" fill="#222">N · non-assumption</text>
<text x="653" y="573" text-anchor="middle" font-size="9.5" fill="#333">A known rotation between measurements</text>
<text x="653" y="586" text-anchor="middle" font-size="9.5" fill="#333">is absorbed by the</text>
<rect x="400" y="301" width="180" height="58" rx="8" fill="#F4F4F4" stroke="#909090" stroke-width="1.5"/>
<text x="490" y="318" text-anchor="middle" font-size="12" font-weight="bold" fill="#222">S3 · statement</text>
<text x="490" y="333" text-anchor="middle" font-size="9.5" fill="#333">Collect only a</text>
<text x="490" y="346" text-anchor="middle" font-size="9.5" fill="#333">fraction</text>
<rect x="645" y="301" width="180" height="58" rx="8" fill="#F4F4F4" stroke="#909090" stroke-width="1.5"/>
<text x="735" y="318" text-anchor="middle" font-size="12" font-weight="bold" fill="#222">S4 · statement</text>
<text x="735" y="333" text-anchor="middle" font-size="9.5" fill="#333">Open an additional channel the record</text>
<text x="735" y="346" text-anchor="middle" font-size="9.5" fill="#333">does not see, and</text>
</svg>