<svg xmlns="http://www.w3.org/2000/svg" width="1260" height="830" viewBox="0 0 1260 830" font-family="Helvetica, Arial, sans-serif">
<rect width="1260" height="830" fill="#ffffff"/>
<text x="630.0" y="30" text-anchor="middle" font-size="15" font-weight="bold" fill="#222">Dependency graph · Backbone: A Cavity Cat, and Why It Decoheres Almost at Once</text>
<text x="630.0" y="48" text-anchor="middle" font-size="10.5" fill="#777">generated by backbone_lint.py from the page’s from-lists</text>
<defs><marker id="arr" viewBox="0 0 10 10" refX="9" refY="5" markerWidth="7" markerHeight="7" orient="auto-start-reverse"><path d="M 0 0 L 10 5 L 0 10 z" fill="#666"/></marker><marker id="arrd" viewBox="0 0 10 10" refX="9" refY="5" markerWidth="7" markerHeight="7" orient="auto-start-reverse"><path d="M 0 0 L 10 5 L 0 10 z" fill="#A6699C"/></marker></defs>
<line x1="540" y1="119" x2="630" y2="181" stroke="#666666" stroke-width="1.6" marker-end="url(#arr)"/>
<line x1="720" y1="119" x2="630" y2="181" stroke="#666666" stroke-width="1.6" marker-end="url(#arr)"/>
<line x1="900" y1="119" x2="630" y2="181" stroke="#666666" stroke-width="1.6" marker-end="url(#arr)"/>
<line x1="630" y1="239" x2="630" y2="301" stroke="#666666" stroke-width="1.6" marker-end="url(#arr)"/>
<line x1="630" y1="359" x2="315" y2="421" stroke="#666666" stroke-width="1.6" marker-end="url(#arr)"/>
<line x1="1080" y1="119" x2="315" y2="421" stroke="#666666" stroke-width="1.6" marker-end="url(#arr)"/>
<line x1="180" y1="119" x2="315" y2="421" stroke="#666666" stroke-width="1.6" marker-end="url(#arr)"/>
<line x1="900" y1="119" x2="630" y2="421" stroke="#A6699C" stroke-width="1.6" stroke-dasharray="6 4" marker-end="url(#arrd)"/>
<line x1="540" y1="119" x2="630" y2="421" stroke="#666666" stroke-width="1.6" marker-end="url(#arr)"/>
<line x1="720" y1="119" x2="630" y2="421" stroke="#666666" stroke-width="1.6" marker-end="url(#arr)"/>
<line x1="1080" y1="119" x2="630" y2="421" stroke="#666666" stroke-width="1.6" marker-end="url(#arr)"/>
<line x1="630" y1="359" x2="630" y2="421" stroke="#666666" stroke-width="1.6" marker-end="url(#arr)"/>
<line x1="720" y1="119" x2="945" y2="421" stroke="#A6699C" stroke-width="1.6" stroke-dasharray="6 4" marker-end="url(#arrd)"/>
<line x1="540" y1="119" x2="945" y2="421" stroke="#666666" stroke-width="1.6" marker-end="url(#arr)"/>
<line x1="900" y1="119" x2="945" y2="421" stroke="#666666" stroke-width="1.6" marker-end="url(#arr)"/>
<line x1="630" y1="359" x2="945" y2="421" stroke="#666666" stroke-width="1.6" marker-end="url(#arr)"/>
<line x1="1080" y1="119" x2="630" y2="541" stroke="#A6699C" stroke-width="1.6" stroke-dasharray="6 4" marker-end="url(#arrd)"/>
<line x1="315" y1="479" x2="630" y2="541" stroke="#666666" stroke-width="1.6" marker-end="url(#arr)"/>
<rect x="450" y="61" width="180" height="58" rx="8" fill="#E7EEF9" stroke="#5B7DB1" stroke-width="1.5"/>
<text x="540" y="78" text-anchor="middle" font-size="12" font-weight="bold" fill="#222">R1 · assumption</text>
<text x="540" y="93" text-anchor="middle" font-size="9.5" fill="#333">The environment couples to the mode</text>
<text x="540" y="106" text-anchor="middle" font-size="9.5" fill="#333">linearly: it</text>
<rect x="630" y="61" width="180" height="58" rx="8" fill="#E7EEF9" stroke="#5B7DB1" stroke-width="1.5"/>
<text x="720" y="78" text-anchor="middle" font-size="12" font-weight="bold" fill="#222">R2 · assumption</text>
<text x="720" y="93" text-anchor="middle" font-size="9.5" fill="#333">The environment is at zero</text>
<text x="720" y="106" text-anchor="middle" font-size="9.5" fill="#333">temperature: it absorbs</text>
<rect x="810" y="61" width="180" height="58" rx="8" fill="#E7EEF9" stroke="#5B7DB1" stroke-width="1.5"/>
<text x="900" y="78" text-anchor="middle" font-size="12" font-weight="bold" fill="#222">R3 · assumption</text>
<text x="900" y="93" text-anchor="middle" font-size="9.5" fill="#333">The environment is memoryless: its</text>
<text x="900" y="106" text-anchor="middle" font-size="9.5" fill="#333">correlation time lies</text>
<rect x="990" y="61" width="180" height="58" rx="8" fill="#E7EEF9" stroke="#5B7DB1" stroke-width="1.5"/>
<text x="1080" y="78" text-anchor="middle" font-size="12" font-weight="bold" fill="#222">R4 · assumption</text>
<text x="1080" y="93" text-anchor="middle" font-size="9.5" fill="#333">The initial state is the even</text>
<text x="1080" y="106" text-anchor="middle" font-size="9.5" fill="#333">superposition of two</text>
<rect x="90" y="61" width="180" height="58" rx="8" fill="#FDF2DA" stroke="#C09A4A" stroke-width="1.5"/>
<text x="180" y="78" text-anchor="middle" font-size="12" font-weight="bold" fill="#222">C1 · choice</text>
<text x="180" y="93" text-anchor="middle" font-size="9.5" fill="#333">"Coherence" means the weight of the</text>
<text x="180" y="106" text-anchor="middle" font-size="9.5" fill="#333">cross term when the</text>
<rect x="540" y="181" width="180" height="58" rx="8" fill="#E9F4EA" stroke="#5E9C6B" stroke-width="1.5"/>
<rect x="544" y="185" width="172" height="50" rx="6" fill="none" stroke="#5E9C6B" stroke-width="0.8"/>
<text x="630" y="198" text-anchor="middle" font-size="12" font-weight="bold" fill="#222">S0 · equation, cited</text>
<text x="630" y="213" text-anchor="middle" font-size="9.5" fill="#333">Standard open-system theory turns the</text>
<text x="630" y="226" text-anchor="middle" font-size="9.5" fill="#333">setup into the</text>
<rect x="540" y="301" width="180" height="58" rx="8" fill="#F4F4F4" stroke="#909090" stroke-width="1.5"/>
<text x="630" y="318" text-anchor="middle" font-size="12" font-weight="bold" fill="#222">S1 · statement</text>
<text x="630" y="333" text-anchor="middle" font-size="9.5" fill="#333">On any coherent dyad the loss acts</text>
<text x="630" y="346" text-anchor="middle" font-size="9.5" fill="#333">through a single</text>
<rect x="225" y="421" width="180" height="58" rx="8" fill="#FFFFFF" stroke="#333333" stroke-width="2.5"/>
<text x="315" y="438" text-anchor="middle" font-size="12" font-weight="bold" fill="#222">H · headline</text>
<text x="315" y="453" text-anchor="middle" font-size="9.5" fill="#333">Setting</text>
<rect x="540" y="421" width="180" height="58" rx="8" fill="#F4F4F4" stroke="#909090" stroke-width="1.5"/>
<text x="630" y="438" text-anchor="middle" font-size="12" font-weight="bold" fill="#222">S1′ · statement</text>
<text x="630" y="453" text-anchor="middle" font-size="9.5" fill="#333">Let the environment remember: the</text>
<text x="630" y="466" text-anchor="middle" font-size="9.5" fill="#333">smallest such</text>
<rect x="855" y="421" width="180" height="58" rx="8" fill="#F4F4F4" stroke="#909090" stroke-width="1.5"/>
<text x="945" y="438" text-anchor="middle" font-size="12" font-weight="bold" fill="#222">S1″ · statement</text>
<text x="945" y="453" text-anchor="middle" font-size="9.5" fill="#333">Warm the environment to</text>
<text x="945" y="466" text-anchor="middle" font-size="9.5" fill="#333">occupation</text>
<rect x="540" y="541" width="180" height="58" rx="8" fill="#F4F4F4" stroke="#909090" stroke-width="1.5"/>
<text x="630" y="558" text-anchor="middle" font-size="12" font-weight="bold" fill="#222">H′ · statement</text>
<text x="630" y="573" text-anchor="middle" font-size="9.5" fill="#333">Shrink the pair and the formula in H</text>
<text x="630" y="586" text-anchor="middle" font-size="9.5" fill="#333">survives verbatim</text>
<rect x="270" y="61" width="180" height="58" rx="8" fill="#FAFAFA" stroke="#999999" stroke-width="1.5" stroke-dasharray="4 3"/>
<text x="360" y="78" text-anchor="middle" font-size="12" font-weight="bold" fill="#222">N · non-assumption</text>
<text x="360" y="93" text-anchor="middle" font-size="9.5" fill="#333">No "no drive" assumption appears</text>
<text x="360" y="106" text-anchor="middle" font-size="9.5" fill="#333">above, on purpose: a</text>
</svg>